<svg id="visual" viewBox="0 0 900 600" width="900" height="600" xmlns="http://www.w3.org/2000/svg" xmlns:xlink="http://www.w3.org/1999/xlink" version="1.1"><rect x="0" y="0" width="900" height="600" fill="#95C6FF"></rect><path d="M0 344L15 365.3C30 386.7 60 429.3 90 449.5C120 469.7 150 467.3 180 464.2C210 461 240 457 270 440.7C300 424.3 330 395.7 360 391C390 386.3 420 405.7 450 396.5C480 387.3 510 349.7 540 334.8C570 320 600 328 630 327.8C660 327.7 690 319.3 720 315.2C750 311 780 311 810 318.3C840 325.7 870 340.3 885 347.7L900 355L900 601L885 601C870 601 840 601 810 601C780 601 750 601 720 601C690 601 660 601 630 601C600 601 570 601 540 601C510 601 480 601 450 601C420 601 390 601 360 601C330 601 300 601 270 601C240 601 210 601 180 601C150 601 120 601 90 601C60 601 30 601 15 601L0 601Z" fill="#cde0fc" stroke-linecap="round" stroke-linejoin="miter"></path></svg>